<?xml version="1.0" encoding="UTF-8"?>
<!-- Generator: Adobe Illustrator 16.0.0, SVG Export Plug-In . SVG Version: 6.00 Build 0)  -->
<!DOCTYPE svg PUBLIC "-//W3C//DTD SVG 1.1//EN" "http://www.w3.org/Graphics/SVG/1.1/DTD/svg11.dtd">
<svg version="1.1" id="Layer_1" xmlns="http://www.w3.org/2000/svg" xmlns:xlink="http://www.w3.org/1999/xlink" x="0px" y="0px" width="256px" height="256px" viewBox="0 0 256 256" enable-background="new 0 0 256 256" xml:space="preserve">
<rect fill="#3FD6F5" width="256" height="256"/>
<polygon fill="#00A5D0" points="112.369,130.567 0,242.917 0,256 54.667,256 173.417,137.834 "/>
<path opacity="0.6" fill="#00A5D0" d="M192.662,119.004L55.75,256H136l107.841-108.209c0,0,2.459-2.041,2.459-7.291L192.662,119.004  z"/>
<path opacity="0.6" fill="#00A5D0" d="M11.034,49.901L0,60.917v163.75l74.461-74.425c0,0,2.82-2.031,3.102-4.094  c-1.781-1.656-61.156-97.813-63.156-97.875S11.034,49.901,11.034,49.901z"/>
<path opacity="0.6" fill="#00A5D0" d="M64.701,13.901L30.238,48.363l-16.67-0.064c0,0-0.937,0.004-2.534,1.602S0,60.917,0,60.917  V256h81.09l137.357-137.357c0,0,2.82-2.031,3.102-4.094C219.768,112.893,70.073,12.336,68.073,12.273S64.701,13.901,64.701,13.901z"/>
<g>
	<polygon fill-rule="evenodd" clip-rule="evenodd" fill="#FFFFFF" points="75.82,147.89 11.917,147.89 11.917,50.507 68.172,50.507    68.172,114.579 75.82,115.599  "/>
	<path fill-rule="evenodd" clip-rule="evenodd" d="M74.956,119.019c0,4.357,0,15.627,0,19.983c0,0.355,0,0.712,0,1.149   c-20.744,0-41.399,0-62.145,0c0-27.514,0-54.941,0-82.454c0.439-0.024,0.825-0.059,1.211-0.059c14.065-0.002,34.306,0,48.372,0   v-9.339c-14.217,0-34.609,0-48.826,0c-2.208,0.819-3.553,2.241-3.553,4.75c0.014,30.648,0.007,61.298,0.012,91.943   c0.002,2.744,1.856,4.63,4.577,4.633c19.5,0.008,38.994,0.008,58.491,0c2.719-0.003,4.589-1.903,4.589-4.63   c0-6.354-0.002-19.622-0.002-25.978H74.956z M43.972,52.313c0.369,0,0.931,0.129,0.931,0.663c0,0.533-0.552,0.672-0.902,0.672   c-0.347,0-0.875-0.254-0.875-0.672S43.605,52.313,43.972,52.313z M43.89,147.485c-1.355,0.027-2.537-1.096-2.596-2.468   c-0.056-1.378,1.129-2.624,2.522-2.642c1.345-0.021,2.549,1.124,2.6,2.47C46.466,146.232,45.292,147.458,43.89,147.485z"/>
	<rect x="13.563" y="92.17" fill-rule="evenodd" clip-rule="evenodd" fill="#CCCCCC" width="27.939" height="15.311"/>
	<rect x="46.078" y="92.17" fill-rule="evenodd" clip-rule="evenodd" fill="#CCCCCC" width="27.938" height="15.311"/>
	<rect x="13.563" y="110.779" fill-rule="evenodd" clip-rule="evenodd" fill="#CCCCCC" width="27.939" height="15.312"/>
	<rect x="46.078" y="110.779" fill-rule="evenodd" clip-rule="evenodd" fill="#CCCCCC" width="27.938" height="15.312"/>
	<g>
		<rect x="13.733" y="130.647" fill="#CCCCCC" width="34.178" height="1"/>
	</g>
	<g>
		<rect x="13.733" y="133.212" fill="#CCCCCC" width="59.703" height="1"/>
	</g>
	<g>
		<rect x="13.733" y="135.775" fill="#CCCCCC" width="59.703" height="1"/>
	</g>
	<g>
		<rect x="13.844" y="61.414" fill-rule="evenodd" clip-rule="evenodd" fill="#29ABE2" width="59.781" height="26.966"/>
		<path opacity="0.5" fill-rule="evenodd" clip-rule="evenodd" fill="#C69C6D" d="M73.38,79.905    c-0.28-0.42-12.327-0.561-18.211,0.28s-6.864,1.261-12.468,2.382c-5.604,1.119-9.385,1.119-12.467,1.399    c-3.082,0.281-8.265,0.701-9.806,0.842c-1.541,0.139-2.942,0.419-3.783,0.419c-0.84,0-2.521,0.036-2.521,0.036v3.117h59.5    L73.38,79.905z"/>
		<path opacity="0.5" fill-rule="evenodd" clip-rule="evenodd" fill="#C69C6D" d="M13.892,87.189c0,0,4.949-0.84,9.619-1.214    c4.669-0.374,11.954-0.187,14.942-1.028c2.988-0.839,7.565-1.306,8.685-1.68c1.121-0.374,1.868-0.935,4.763-1.494    c2.895-0.561,3.642-1.308,7.191-1.401c3.549-0.094,6.538-0.374,7.751-0.374s6.724,0.28,6.724,0.28v8.102H14.125L13.892,87.189z"/>
		<path fill-rule="evenodd" clip-rule="evenodd" fill="#C69C6D" d="M17.44,88.496c0,0,1.774-0.932,3.642-1.12    c1.867-0.188,5.417-0.187,6.444-0.093c1.027,0.093,5.417,0.186,5.697,0.186c0.279,0,3.642-0.466,4.482-0.746    c0.841-0.28,3.175-1.122,3.735-1.402c0.561-0.28,2.148-0.467,3.736-0.746c1.587-0.281,1.96-0.187,3.549-0.841    c1.588-0.654,2.895-1.401,3.175-1.401s1.028-0.467,2.335-0.56c1.307-0.093,2.707-0.653,3.455-0.747    c0.748-0.094,3.175-0.374,3.922-0.374s1.401-0.094,2.615,0c1.214,0.094,0.84,0.28,2.148,0.28s3.829,0,3.829,0l3.362-0.093v7.937    L17.44,88.496z"/>
		<path fill-rule="evenodd" clip-rule="evenodd" fill="#FFFFFF" d="M20.429,71.78c-1.063-0.904-2.452-2.241-0.21-3.922    c0,0-0.63-2.031,1.611-3.012c2.241-0.98,4.062,1.54,4.062,1.54s1.518-2.317,4.343-2.102c1.821,0.141,2.801,1.121,3.012,1.682    c1.541-1.19,3.572-0.35,3.852,1.191c1.191-0.211,2.592,0.14,2.522,1.05c-0.07,0.911-2.592,1.472-3.432,0.49    c0.56,2.731-4.693,4.203-5.884,1.682c-0.42,0.7-1.261,0.21-1.261,0.21s-0.351,1.471-3.082,0.7    C24.141,72.901,22.32,73.391,20.429,71.78z"/>
		<path opacity="0.4" fill="#FFFFFF" d="M50.139,70.94c-0.452,0-0.861,0.14-1.175,0.364c-0.287-0.758-1.015-1.298-1.873-1.298    c-0.085,0-0.165,0.014-0.247,0.024c0.064-0.186,0.106-0.38,0.106-0.586c0-0.98-0.794-1.774-1.774-1.774    c-0.877,0-1.601,0.639-1.744,1.476c-0.446-0.166-0.927-0.262-1.431-0.262c-1.443,0-2.71,0.746-3.443,1.871    c-0.368-0.454-0.923-0.749-1.553-0.749c-1.106,0-2.003,0.894-2.007,1.998c-1.338,0.147-2.335,0.7-2.335,1.363    c0,0.665,1.006,1.222,2.354,1.364c0.1,0.963,0.905,1.718,1.895,1.718c0.765,0,1.419-0.451,1.727-1.1    c0.743,1.059,1.971,1.753,3.363,1.753c1.933,0,3.55-1.336,3.988-3.135c0.205,0.781,0.909,1.36,1.755,1.36    c0.924,0,1.679-0.692,1.797-1.583c0.187,0.054,0.386,0.088,0.597,0.088c0.986,0,1.785-0.646,1.785-1.447    C51.924,71.587,51.125,70.94,50.139,70.94z"/>
		<g>
			<path fill-rule="evenodd" clip-rule="evenodd" d="M52.578,77.908c-0.399-0.637-0.606-1.346-0.733-2.077     c-0.221-1.272-0.205-1.758,0.063-3.329c-0.022,0-0.046-0.009-0.061,0.001c-0.621,0.402-1.232,0.81-1.647,1.455     c-0.479,0.746-0.975,1.481-1.305,2.31c-0.057,0.142-0.102,0.294-0.113,0.443c-0.014,0.173-0.081,0.293-0.25,0.304     c-0.185,0.013-0.273-0.115-0.296-0.289c-0.057-0.449-0.143-0.898-0.161-1.351c-0.041-1.046,0.122-2.058,0.616-2.996     c0.5-0.951,1.252-1.607,2.276-1.947c0.077-0.025,0.152-0.056,0.29-0.104c-0.458-0.186-0.873-0.215-1.292-0.167     c-0.617,0.071-1.208,0.226-1.734,0.581c-0.08,0.054-0.252,0.051-0.331-0.001c-0.065-0.044-0.11-0.225-0.073-0.299     c0.159-0.322,0.299-0.678,0.541-0.929c1.075-1.126,2.389-1.589,3.94-1.295c0.148,0.028,0.293,0.089,0.435,0.15     c0.139,0.061,0.27,0.14,0.417,0.218c0.133-0.602,0.396-1.116,0.82-1.541c0.335-0.335,0.721-0.588,1.196-0.65     c0.203-0.026,0.418-0.014,0.617,0.028c0.095,0.019,0.221,0.143,0.231,0.229c0.009,0.089-0.085,0.233-0.172,0.278     c-0.523,0.267-0.702,0.737-0.834,1.313c0.825-0.406,1.632-0.45,2.455-0.168c0.802,0.274,1.449,0.771,2.002,1.393     c0.381-0.322,0.734-0.667,1.133-0.944c0.401-0.28,0.849-0.494,1.285-0.742c0.004,0.006-0.005-0.026-0.027-0.037     c-1.191-0.607-2.404-0.796-3.66-0.198c-0.083,0.039-0.159,0.092-0.239,0.14c-0.139,0.083-0.28,0.098-0.398-0.028     c-0.12-0.127-0.129-0.273-0.021-0.419c0.757-1.017,1.737-1.69,2.99-1.941c0.865-0.176,1.701-0.071,2.504,0.289     c0.036,0.017,0.072,0.031,0.107,0.042c0.014,0.005,0.03,0.002,0.075,0.002c-0.129-0.657-0.333-1.25-0.969-1.596     c-0.096-0.054-0.222-0.207-0.204-0.28c0.027-0.103,0.165-0.226,0.275-0.251c0.679-0.159,1.264,0.073,1.779,0.496     c0.603,0.494,0.992,1.13,1.143,1.901c0.009,0.043,0.029,0.083,0.025,0.071c0.429-0.151,0.834-0.354,1.262-0.433     c1.138-0.21,2.203,0.058,3.193,0.635c0.736,0.43,1.328,0.998,1.657,1.805c0.063,0.156,0.118,0.316-0.036,0.444     c-0.148,0.122-0.28,0.032-0.417-0.054c-0.925-0.563-1.927-0.752-2.994-0.584c-0.17,0.027-0.332,0.102-0.566,0.176     c0.123,0.054,0.177,0.086,0.237,0.101c1.641,0.459,2.651,1.565,3.178,3.141c0.459,1.373,0.428,2.774,0.142,4.177     c-0.031,0.149-0.125,0.255-0.29,0.24c-0.163-0.014-0.213-0.127-0.251-0.28c-0.079-0.318-0.16-0.644-0.299-0.938     c-0.452-0.957-1.012-1.851-1.653-2.693c-0.461-0.605-1.137-0.932-1.764-1.354c0.048,0.194,0.105,0.385,0.146,0.581     c0.282,1.396,0.172,2.779-0.211,4.138c-0.15,0.534-0.409,1.041-0.628,1.556c-0.068,0.159-0.196,0.274-0.386,0.208     c-0.182-0.063-0.174-0.224-0.166-0.386c0.059-1.289,0.078-2.575-0.353-3.818c-0.187-0.54-0.433-1.05-0.793-1.55     c-0.055,0.097-0.097,0.164-0.132,0.234c-0.87,1.763-1.475,3.617-1.901,5.532c-0.417,1.867-0.68,3.756-0.846,5.66     c-0.07,0.829-0.129,1.659-0.191,2.488c-0.022,0.302,0.025,0.386,0.314,0.477c0.537,0.172,1.091,0.184,1.646,0.155     c0.177-0.008,0.352-0.04,0.528-0.058c0.16-0.018,0.276,0.048,0.306,0.211c0.031,0.174-0.055,0.293-0.227,0.313     c-0.842,0.104-1.679,0.089-2.483-0.214c-0.523-0.196-0.661-0.395-0.613-0.942c0.14-1.588,0.274-3.176,0.458-4.76     c0.244-2.099,0.681-4.16,1.342-6.17c0.378-1.15,0.862-2.257,1.389-3.346c0.213-0.442,0.542-0.326,0.721-0.053     c0.308,0.469,0.597,0.955,0.826,1.464c0.409,0.912,0.53,1.893,0.568,2.882c0.002,0.077,0,0.151,0,0.226     c0.021,0.005,0.042,0.01,0.062,0.014c0.068-0.254,0.143-0.506,0.2-0.762c0.233-1.056,0.311-2.118,0.121-3.188     c-0.094-0.528-0.266-1.029-0.639-1.438c-0.099-0.107-0.135-0.226-0.045-0.354c0.097-0.137,0.236-0.153,0.37-0.078     c0.423,0.235,0.837,0.487,1.261,0.722c1.324,0.734,2.073,1.965,2.789,3.224c0.15,0.267,0.288,0.539,0.432,0.809     c0.021-0.002,0.043-0.004,0.065-0.006c0.006-0.354,0.033-0.711,0.016-1.066c-0.046-1.007-0.264-1.966-0.825-2.824     c-0.656-1.001-1.594-1.559-2.76-1.761c-0.105-0.019-0.219-0.015-0.317-0.053c-0.092-0.037-0.208-0.102-0.236-0.182     c-0.027-0.079,0.012-0.218,0.073-0.286c0.352-0.402,0.825-0.583,1.336-0.667c0.806-0.132,1.595-0.037,2.372,0.201     c0.079,0.024,0.158,0.048,0.292,0.089c-0.068-0.096-0.099-0.155-0.143-0.2c-1.105-1.1-2.421-1.573-3.974-1.307     c-0.406,0.069-0.752,0.278-1.002,0.613c-0.136,0.183-0.298,0.202-0.489,0.134c-0.182-0.064-0.187-0.216-0.183-0.38     c0.016-0.925-0.359-1.656-1.117-2.183c-0.15-0.104-0.333-0.163-0.507-0.247c0.181,0.412,0.369,0.78,0.501,1.168     c0.083,0.242,0.106,0.513,0.114,0.772c0.011,0.395-0.189,0.493-0.553,0.324c-0.354-0.166-0.709-0.353-1.084-0.445     c-1.253-0.309-2.355,0.05-3.333,0.854c-0.021,0.018-0.033,0.046-0.053,0.076c0.365-0.025,0.714-0.073,1.063-0.07     c1.063,0.009,2.027,0.344,2.896,0.947c0.095,0.065,0.189,0.225,0.176,0.328c-0.01,0.086-0.168,0.192-0.279,0.219     c-1.145,0.266-2.042,0.908-2.779,1.8c-0.236,0.287-0.369,0.293-0.596,0.005c-0.502-0.633-1.089-1.152-1.864-1.429     c-0.768-0.272-1.499-0.19-2.192,0.233c-0.065,0.04-0.129,0.087-0.198,0.119c-0.273,0.123-0.459,0.013-0.471-0.285     c-0.02-0.518,0.137-0.987,0.39-1.43c0.038-0.066,0.079-0.131,0.088-0.239c-0.129,0.066-0.271,0.118-0.386,0.204     c-0.597,0.442-0.903,1.036-0.901,1.783c0,0.17,0.023,0.341-0.19,0.419c-0.221,0.082-0.355-0.009-0.495-0.175     c-0.349-0.417-0.835-0.553-1.349-0.55c-1.046,0.006-1.979,0.338-2.756,1.062c-0.049,0.046-0.09,0.103-0.178,0.204     c0.238-0.057,0.417-0.103,0.597-0.14c0.703-0.147,1.408-0.193,2.093,0.072c0.224,0.087,0.425,0.24,0.629,0.374     c0.127,0.084,0.243,0.221,0.154,0.366c-0.06,0.099-0.21,0.162-0.332,0.196c-0.243,0.071-0.502,0.089-0.741,0.169     c-1.311,0.439-2.071,1.387-2.36,2.703c-0.125,0.571-0.11,1.175-0.157,1.764c-0.002,0.04,0.011,0.082,0.066,0.138     c0.034-0.063,0.066-0.128,0.103-0.189c0.276-0.472,0.554-0.941,0.831-1.414c0.667-1.145,1.731-1.811,2.865-2.396     c0.137-0.071,0.289-0.106,0.398,0.039c0.11,0.149,0.043,0.282-0.068,0.413c-0.402,0.477-0.525,1.059-0.576,1.654     c-0.074,0.865,0.016,1.722,0.232,2.565c0.013,0.049,0.038,0.095,0.075,0.184c0.055-0.441,0.096-0.838,0.155-1.232     c0.145-0.947,0.53-1.795,1.079-2.575c0.142-0.202,0.365-0.189,0.502,0.03c0.997,1.585,1.705,3.288,2.108,5.119     c0.359,1.628,0.566,3.275,0.697,4.936c0.06,0.762,0.099,1.522,0.176,2.281c0.033,0.324-0.086,0.53-0.341,0.694     c-0.421,0.267-0.891,0.389-1.375,0.437c-0.466,0.046-0.938,0.04-1.407,0.052c-0.083,0.003-0.19,0.007-0.247-0.039     c-0.089-0.072-0.195-0.183-0.203-0.283c-0.012-0.144,0.11-0.222,0.267-0.221c0.431,0.005,0.868,0.05,1.292-0.001     c0.43-0.052,0.85-0.19,1.27-0.31c0.146-0.041,0.222-0.157,0.21-0.338c-0.157-2.353-0.327-4.702-0.833-7.012     c-0.348-1.585-0.911-3.084-1.736-4.481c-0.031-0.054-0.063-0.105-0.096-0.157c-0.012-0.019-0.03-0.034-0.062-0.066     c-0.286,0.404-0.477,0.845-0.619,1.309c-0.32,1.033-0.325,2.094-0.246,3.16"/>
			<path fill-rule="evenodd" clip-rule="evenodd" d="M58.898,73.711c-0.124-0.279-0.223-0.526-0.343-0.763     c-0.071-0.145-0.095-0.271,0.008-0.408c0.685-0.919,1.516-1.655,2.58-2.111c0.468-0.2,0.959-0.284,1.461-0.302     c0.096-0.003,0.246,0.066,0.281,0.144c0.042,0.09,0.018,0.242-0.034,0.338c-1.079,1.964-1.919,4.027-2.559,6.174     c-0.575,1.93-0.979,3.895-1.209,5.895c-0.01,0.084-0.006,0.188-0.054,0.244c-0.077,0.09-0.194,0.208-0.289,0.202     c-0.084-0.003-0.217-0.145-0.235-0.245c-0.107-0.565-0.177-1.141-0.278-1.708c-0.535-2.983-1.489-5.824-2.933-8.495     c-0.058-0.106-0.095-0.29-0.042-0.371c0.055-0.084,0.233-0.121,0.357-0.12c1.157,0.012,2.103,0.517,2.938,1.277     c0.084,0.078,0.166,0.158,0.25,0.238C58.803,73.704,58.813,73.702,58.898,73.711z M62.208,70.681     c-0.18,0.035-0.307,0.053-0.431,0.086c-1.081,0.292-1.884,0.979-2.583,1.817c-0.105,0.127-0.085,0.224-0.041,0.372     c0.137,0.461,0.254,0.933,0.345,1.405c0.037,0.188-0.022,0.401-0.23,0.483c-0.215,0.085-0.311-0.092-0.417-0.239     c-0.533-0.74-1.188-1.335-2.05-1.666c-0.266-0.102-0.55-0.157-0.826-0.233c-0.011,0.02-0.022,0.04-0.033,0.06     c1.353,2.6,2.263,5.351,2.817,8.229C59.384,77.396,60.483,73.96,62.208,70.681z"/>
			<path fill-rule="evenodd" clip-rule="evenodd" d="M56.842,69.597c0.904,0.008,1.667,0.271,2.38,0.695     c0.168,0.101,0.182,0.242,0.089,0.415c-0.246,0.46-0.489,0.922-0.719,1.39c-0.119,0.241-0.352,0.291-0.501,0.071     c-0.612-0.903-1.504-1.358-2.528-1.611c-0.146-0.035-0.292-0.07-0.319-0.25c-0.027-0.178,0.101-0.261,0.229-0.338     C55.915,69.705,56.396,69.596,56.842,69.597z M56.327,70.202c0.715,0.31,1.373,0.695,1.915,1.284     c0.161-0.3,0.313-0.579,0.472-0.873C57.944,70.213,57.179,69.977,56.327,70.202z"/>
			<path fill-rule="evenodd" clip-rule="evenodd" fill="#39B54A" d="M49.146,69.561c1.867-0.163,3.176,0.935,3.176,0.935     s-3.759,0.514-3.62,4.74c1.471-2.219,3.012-4.156,4.202-4.04c0.421,0.748-0.209,0.561-0.606,2.031     c-0.396,1.472,0.187,2.382,0.187,2.382s0.887-3.362,1.471-3.408c0.444,0.256,0.817,0.256,1.284-0.141     c1.892,0.07,2.382,0.467,3.316,1.284c-1.004-1.821-2.266-2.778-3.549-2.941c0.397-0.606,2.218-1.354,4.132-0.327     c-2.217-1.634-2.474-1.914-4.575-1.004c-0.21-0.888,0.257-1.984,0.257-1.984s-1.261,0.606-1.168,2.474     C53.254,69.655,51.223,67.437,49.146,69.561z"/>
			<path fill-rule="evenodd" clip-rule="evenodd" fill="#39B54A" d="M63.084,67.717c0,0-1.787-1.471-3.047-1.331     c1.086-0.875,3.467,0.316,3.467,0.316s0.596-0.736,0.035-2.382c0.701,0.665,1.016,2.661,1.016,2.661s0.596-0.98,2.732-0.84     c2.136,0.14,2.661,1.085,2.661,1.085s-3.396-0.771-4.203,1.331c2.382,0,4.973,1.331,4.728,5.113     c-2.942-4.799-5.217-4.378-5.217-4.378s1.88,2.086,0.73,5.665c-0.205-3.459-1.781-4.825-1.781-4.825s-0.595,0.876-1.156,0.106     c-1.156-0.351-2.662,0.035-4.237,1.786c1.19-3.013,3.012-3.328,3.958-3.678C63.329,68.102,63.084,67.717,63.084,67.717z"/>
			<path fill-rule="evenodd" clip-rule="evenodd" fill="#A67C52" d="M54.399,72.481c0,0,1.471,2.136,2.171,6.548     c0.7,4.413,0.735,6.164,0.735,6.164s-0.051,0.183-0.41,0.46c-0.36,0.275,0.096,0.275,1.391,0.206     c1.295-0.07,2.487,0.104,3.152,0.176c-1.226-0.526-0.665-3.398-0.21-6.796c0.456-3.396,2.487-8.439,2.487-8.439     s-0.678-1.057-0.829-0.528c-0.401,0.919-2.015,5.073-3.059,8.582c-0.628,2.114-0.752,4.423-1.12,4.448     c-0.42-0.104-0.735-3.782-1.226-5.287c-0.49-1.507-2.171-5.533-2.347-5.569C54.959,72.411,54.714,72.585,54.399,72.481z"/>
		</g>
		<path d="M73.38,61.659v26.475H14.125V61.659H73.38 M73.94,61.099H13.564v27.595H73.94V61.099L73.94,61.099z"/>
	</g>
</g>
<g>
	<rect x="67.577" y="16.687" fill-rule="evenodd" clip-rule="evenodd" fill="#FFFFFF" width="150.917" height="97.128"/>
	<g>
		<path fill-rule="evenodd" clip-rule="evenodd" d="M215.733,57.716c0,0-0.002-11.457,0-13.217c0.005-7.792,0.055-25.23,0.055-25.23    s-0.566-0.046-2.013-0.043c-19.563,0.041-39.121,0.027-58.678,0.027c-27.041,0-54.081,0-81.12,0c-1.216,0-2.434,0-3.808,0    c0,30.741,0,61.311,0,92.104c38.161,0,84.187,0,122.493,0c0,2.623,0,5.026,0,7.647c-7.563,0-22.934,0-30.549,0    c0,3.923,0,7.631,0,11.567c3.78,0,7.483,0,11.271,0c0,2.598,0,4.964,0,7.465c-20.314,0-40.577,0-61.015,0c0-2.401,0-4.8,0-7.469    c3.769,0,7.47,0,11.272,0c0-3.971,0-7.677,0-11.586c-2.436,0-4.749,0-7.062,0c-15.084,0-30.17-0.129-45.25,0.068    c-5.632,0.075-9.011-3.686-8.994-8.964c0.109-29.88,0.051-59.761,0.059-89.642c0.001-4.418,1.904-7.38,5.492-8.343    c1.279-0.343,2.667-0.378,4.005-0.38c44.083-0.017,88.167-0.016,132.25-0.013c3.739,0,7.481-0.043,11.22,0.048    c4.768,0.116,7.808,2.969,7.86,7.666c0.11,9.813,0.032,38.292,0.032,38.292L215.733,57.716z"/>
	</g>
	<g>
		<rect x="88.75" y="29.659" fill-rule="evenodd" clip-rule="evenodd" fill="#29ABE2" width="106.688" height="48.125"/>
		<g>
			<path d="M83.999,62.646c-0.384,0-0.768-0.146-1.061-0.439l-8.485-8.485l8.485-8.485c0.586-0.586,1.535-0.586,2.121,0     c0.586,0.585,0.586,1.536,0,2.121l-6.364,6.364l6.364,6.364c0.586,0.585,0.586,1.536,0,2.121     C84.767,62.5,84.383,62.646,83.999,62.646z"/>
		</g>
		<g>
			<path d="M199.826,62.646c-0.384,0-0.768-0.146-1.061-0.439c-0.586-0.585-0.586-1.536,0-2.121l6.364-6.364l-6.364-6.364     c-0.586-0.585-0.586-1.536,0-2.121c0.586-0.586,1.535-0.586,2.121,0l8.485,8.485l-8.485,8.485     C200.594,62.5,200.21,62.646,199.826,62.646z"/>
		</g>
		<path opacity="0.5" fill-rule="evenodd" clip-rule="evenodd" fill="#C69C6D" d="M195,62.659c-0.5-0.75-22-1-32.5,0.5    s-12.25,2.25-22.25,4.25s-16.75,2-22.25,2.5s-14.75,1.25-17.5,1.5s-5.25,0.75-6.75,0.75s-4.5,0.063-4.5,0.063v5.563h106.188    L195,62.659z"/>
		<path opacity="0.5" fill-rule="evenodd" clip-rule="evenodd" fill="#C69C6D" d="M88.833,75.659c0,0,8.833-1.5,17.167-2.167    s21.334-0.333,26.667-1.833s13.5-2.333,15.5-3s3.333-1.667,8.5-2.667s6.499-2.333,12.833-2.5s11.668-0.667,13.834-0.667    s12,0.5,12,0.5v14.458H89.25L88.833,75.659z"/>
		<path fill-rule="evenodd" clip-rule="evenodd" fill="#C69C6D" d="M95.167,77.993c0,0,3.167-1.667,6.5-2s9.667-0.333,11.5-0.167    s9.667,0.333,10.167,0.333s6.5-0.833,8-1.333s5.666-2,6.666-2.5s3.834-0.833,6.667-1.333s3.499-0.333,6.333-1.5    s5.167-2.5,5.667-2.5s1.834-0.833,4.167-1s4.832-1.167,6.166-1.333s5.666-0.667,7-0.667s2.5-0.167,4.667,0s1.499,0.5,3.833,0.5    s6.834,0,6.834,0l6-0.167v14.167L95.167,77.993z"/>
		<path fill-rule="evenodd" clip-rule="evenodd" fill="#FFFFFF" d="M100.5,48.159c-1.896-1.615-4.375-4-0.375-7    c0,0-1.125-3.625,2.875-5.375s7.25,2.75,7.25,2.75s2.709-4.138,7.75-3.75c3.25,0.25,5,2,5.375,3    c2.75-2.125,6.375-0.625,6.875,2.125c2.125-0.375,4.625,0.25,4.5,1.875s-4.625,2.625-6.125,0.875c1,4.875-8.375,7.5-10.5,3    c-0.75,1.25-2.25,0.375-2.25,0.375s-0.625,2.625-5.5,1.25C107.125,50.159,103.875,51.034,100.5,48.159z"/>
		<path opacity="0.4" fill="#FFFFFF" d="M153.521,46.659c-0.807,0-1.535,0.25-2.096,0.651c-0.513-1.352-1.811-2.317-3.342-2.317    c-0.151,0-0.295,0.026-0.441,0.044c0.115-0.329,0.19-0.676,0.19-1.044c0-1.749-1.418-3.167-3.167-3.167    c-1.565,0-2.857,1.139-3.112,2.633c-0.796-0.296-1.654-0.466-2.554-0.466c-2.575,0-4.836,1.33-6.145,3.338    c-0.657-0.81-1.647-1.338-2.771-1.338c-1.975,0-3.575,1.597-3.583,3.569c-2.388,0.261-4.168,1.249-4.168,2.431    c0,1.188,1.796,2.18,4.202,2.435c0.178,1.72,1.615,3.066,3.382,3.066c1.364,0,2.533-0.806,3.081-1.962    c1.326,1.89,3.518,3.128,6.002,3.128c3.45,0,6.336-2.385,7.118-5.595c0.365,1.394,1.623,2.428,3.132,2.428    c1.649,0,2.997-1.233,3.207-2.825c0.334,0.097,0.689,0.159,1.064,0.159c1.76,0,3.187-1.157,3.187-2.583    S155.281,46.659,153.521,46.659z"/>
		<g>
			<path fill-rule="evenodd" clip-rule="evenodd" d="M157.875,59.094c-0.713-1.137-1.081-2.401-1.308-3.706     c-0.395-2.271-0.366-3.137,0.112-5.941c-0.039,0-0.083-0.014-0.107,0.002c-1.109,0.718-2.2,1.445-2.94,2.598     c-0.855,1.331-1.739,2.642-2.328,4.121c-0.102,0.252-0.182,0.524-0.202,0.792c-0.025,0.309-0.144,0.521-0.447,0.542     c-0.33,0.021-0.488-0.207-0.527-0.515c-0.102-0.803-0.255-1.605-0.287-2.412c-0.073-1.866,0.218-3.672,1.1-5.348     c0.893-1.696,2.235-2.868,4.062-3.474c0.138-0.046,0.272-0.099,0.518-0.187c-0.818-0.331-1.558-0.384-2.307-0.298     c-1.102,0.126-2.155,0.404-3.095,1.038c-0.142,0.095-0.449,0.091-0.59-0.002c-0.116-0.079-0.196-0.401-0.13-0.535     c0.283-0.574,0.534-1.207,0.965-1.657c1.919-2.007,4.264-2.836,7.031-2.311c0.266,0.051,0.524,0.16,0.776,0.269     c0.248,0.107,0.481,0.25,0.743,0.39c0.238-1.075,0.707-1.992,1.465-2.751c0.597-0.598,1.285-1.048,2.135-1.16     c0.361-0.047,0.745-0.024,1.1,0.049c0.169,0.036,0.395,0.255,0.413,0.411c0.017,0.157-0.152,0.417-0.308,0.497     c-0.934,0.475-1.254,1.314-1.488,2.343c1.473-0.725,2.913-0.804,4.382-0.3c1.431,0.49,2.586,1.375,3.573,2.484     c0.68-0.574,1.31-1.189,2.022-1.685c0.717-0.499,1.515-0.881,2.294-1.324c0.007,0.01-0.011-0.047-0.049-0.066     c-2.124-1.084-4.29-1.421-6.53-0.354c-0.147,0.07-0.285,0.164-0.427,0.249c-0.248,0.148-0.5,0.177-0.71-0.048     c-0.214-0.228-0.23-0.49-0.037-0.75c1.351-1.814,3.1-3.018,5.336-3.467c1.544-0.311,3.035-0.125,4.47,0.52     c0.063,0.028,0.128,0.054,0.191,0.075c0.023,0.008,0.053,0.001,0.134,0.001c-0.231-1.174-0.594-2.23-1.729-2.848     c-0.172-0.094-0.397-0.369-0.364-0.499c0.049-0.184,0.294-0.402,0.491-0.448c1.211-0.285,2.256,0.131,3.175,0.885     c1.075,0.883,1.771,2.015,2.039,3.393c0.016,0.077,0.052,0.148,0.044,0.128c0.767-0.271,1.489-0.633,2.253-0.773     c2.031-0.373,3.931,0.104,5.697,1.134c1.314,0.767,2.37,1.781,2.958,3.221c0.113,0.277,0.21,0.563-0.063,0.791     c-0.266,0.221-0.5,0.057-0.745-0.093c-1.651-1.006-3.439-1.343-5.343-1.042c-0.305,0.048-0.594,0.181-1.012,0.313     c0.219,0.094,0.316,0.151,0.423,0.181c2.93,0.818,4.731,2.792,5.673,5.604c0.819,2.451,0.763,4.95,0.253,7.454     c-0.055,0.269-0.222,0.455-0.518,0.429c-0.29-0.025-0.38-0.226-0.449-0.5c-0.142-0.568-0.285-1.148-0.533-1.673     c-0.807-1.708-1.805-3.303-2.95-4.807c-0.823-1.082-2.028-1.662-3.148-2.414c0.087,0.345,0.188,0.688,0.26,1.036     c0.504,2.492,0.308,4.96-0.376,7.383c-0.269,0.956-0.73,1.859-1.121,2.779c-0.121,0.284-0.35,0.489-0.689,0.371     c-0.325-0.113-0.312-0.4-0.297-0.689c0.106-2.3,0.14-4.596-0.629-6.814c-0.333-0.963-0.773-1.874-1.416-2.766     c-0.097,0.171-0.172,0.292-0.234,0.418c-1.554,3.146-2.634,6.456-3.395,9.873c-0.743,3.332-1.213,6.704-1.508,10.103     c-0.127,1.479-0.231,2.96-0.342,4.441c-0.04,0.537,0.045,0.686,0.561,0.85c0.958,0.306,1.947,0.327,2.938,0.276     c0.315-0.016,0.628-0.072,0.943-0.104c0.285-0.028,0.492,0.086,0.545,0.377c0.056,0.311-0.099,0.521-0.405,0.559     c-1.503,0.187-2.996,0.16-4.433-0.38c-0.934-0.351-1.179-0.704-1.094-1.682c0.249-2.834,0.489-5.669,0.817-8.494     c0.436-3.747,1.215-7.426,2.395-11.013c0.675-2.052,1.538-4.026,2.478-5.97c0.381-0.789,0.968-0.582,1.288-0.093     c0.549,0.834,1.065,1.703,1.474,2.612c0.73,1.626,0.947,3.376,1.015,5.144c0.005,0.135,0.001,0.269,0.001,0.402     c0.037,0.007,0.074,0.015,0.11,0.022c0.121-0.453,0.256-0.902,0.356-1.358c0.417-1.883,0.556-3.781,0.215-5.69     c-0.167-0.943-0.474-1.836-1.14-2.564c-0.176-0.193-0.241-0.404-0.081-0.633c0.173-0.243,0.421-0.273,0.66-0.14     c0.755,0.42,1.493,0.871,2.25,1.289c2.363,1.311,3.7,3.506,4.978,5.753c0.269,0.475,0.515,0.962,0.771,1.443     c0.037-0.004,0.077-0.007,0.116-0.011c0.011-0.635,0.058-1.271,0.029-1.903c-0.082-1.796-0.472-3.511-1.474-5.041     c-1.169-1.786-2.845-2.78-4.925-3.142c-0.188-0.033-0.391-0.026-0.565-0.096c-0.163-0.065-0.372-0.18-0.421-0.321     c-0.05-0.142,0.021-0.39,0.129-0.513c0.629-0.717,1.473-1.039,2.386-1.189c1.438-0.237,2.847-0.066,4.232,0.359     c0.142,0.043,0.282,0.086,0.521,0.159c-0.122-0.173-0.176-0.278-0.256-0.357c-1.973-1.963-4.321-2.808-7.091-2.333     c-0.725,0.125-1.343,0.496-1.788,1.095c-0.243,0.326-0.532,0.36-0.873,0.239c-0.324-0.115-0.332-0.384-0.326-0.677     c0.029-1.65-0.64-2.957-1.992-3.896c-0.269-0.187-0.593-0.291-0.905-0.44c0.322,0.734,0.658,1.392,0.895,2.083     c0.148,0.433,0.189,0.916,0.202,1.378c0.021,0.706-0.338,0.881-0.986,0.578c-0.632-0.296-1.266-0.627-1.936-0.792     c-2.237-0.551-4.204,0.087-5.95,1.522c-0.038,0.031-0.059,0.082-0.094,0.135c0.651-0.045,1.275-0.129,1.897-0.125     c1.897,0.014,3.618,0.612,5.168,1.69c0.169,0.118,0.337,0.402,0.313,0.586c-0.018,0.151-0.301,0.344-0.498,0.389     c-2.043,0.473-3.645,1.622-4.96,3.213c-0.422,0.511-0.657,0.523-1.064,0.008c-0.895-1.13-1.943-2.057-3.326-2.549     c-1.371-0.488-2.675-0.342-3.912,0.417c-0.117,0.072-0.23,0.155-0.354,0.211c-0.489,0.221-0.82,0.024-0.841-0.509     c-0.035-0.921,0.244-1.761,0.696-2.55c0.067-0.117,0.14-0.232,0.157-0.428c-0.23,0.12-0.482,0.213-0.689,0.366     c-1.064,0.789-1.611,1.849-1.608,3.181c0.001,0.305,0.041,0.61-0.34,0.751c-0.394,0.146-0.634-0.018-0.882-0.315     c-0.623-0.743-1.491-0.984-2.406-0.979c-1.867,0.01-3.533,0.604-4.919,1.894c-0.088,0.082-0.161,0.181-0.318,0.364     c0.426-0.1,0.745-0.183,1.066-0.25c1.255-0.261,2.513-0.345,3.734,0.129c0.401,0.155,0.759,0.428,1.123,0.668     c0.228,0.15,0.434,0.394,0.275,0.654c-0.106,0.175-0.374,0.288-0.592,0.351c-0.434,0.126-0.896,0.158-1.322,0.3     c-2.339,0.784-3.697,2.477-4.212,4.823c-0.224,1.021-0.197,2.098-0.281,3.149c-0.005,0.073,0.02,0.148,0.117,0.245     c0.062-0.113,0.119-0.227,0.185-0.338c0.493-0.841,0.989-1.681,1.482-2.524c1.189-2.042,3.091-3.231,5.114-4.276     c0.243-0.126,0.516-0.19,0.71,0.07c0.196,0.267,0.077,0.504-0.121,0.738c-0.719,0.849-0.938,1.89-1.027,2.95     c-0.132,1.545,0.028,3.076,0.414,4.58c0.023,0.087,0.068,0.17,0.134,0.328c0.098-0.789,0.171-1.497,0.277-2.199     c0.258-1.691,0.945-3.206,1.926-4.597c0.254-0.36,0.65-0.336,0.896,0.054c1.778,2.829,3.042,5.87,3.763,9.136     c0.641,2.905,1.011,5.846,1.245,8.808c0.106,1.357,0.176,2.717,0.313,4.071c0.059,0.58-0.153,0.945-0.609,1.237     c-0.75,0.478-1.589,0.696-2.453,0.781c-0.832,0.081-1.674,0.072-2.512,0.093c-0.148,0.004-0.339,0.011-0.439-0.071     c-0.159-0.129-0.348-0.325-0.362-0.506c-0.021-0.254,0.197-0.396,0.477-0.393c0.77,0.009,1.549,0.087,2.305-0.003     c0.767-0.093,1.517-0.338,2.265-0.552c0.262-0.074,0.397-0.282,0.377-0.603c-0.28-4.198-0.584-8.392-1.486-12.515     c-0.62-2.826-1.625-5.502-3.099-7.996c-0.055-0.095-0.111-0.189-0.171-0.282c-0.021-0.034-0.055-0.061-0.11-0.12     c-0.511,0.723-0.852,1.51-1.104,2.337c-0.57,1.845-0.58,3.736-0.438,5.639"/>
			<path fill-rule="evenodd" clip-rule="evenodd" d="M169.155,51.607c-0.222-0.499-0.397-0.94-0.611-1.362     c-0.128-0.258-0.169-0.483,0.014-0.728c1.222-1.64,2.704-2.955,4.604-3.769c0.835-0.357,1.711-0.506,2.607-0.539     c0.172-0.006,0.438,0.119,0.501,0.257c0.075,0.16,0.031,0.433-0.062,0.603c-1.925,3.506-3.425,7.188-4.565,11.019     c-1.026,3.444-1.747,6.95-2.159,10.52c-0.017,0.15-0.01,0.335-0.097,0.436c-0.138,0.161-0.346,0.371-0.516,0.362     c-0.15-0.006-0.386-0.261-0.419-0.438c-0.191-1.011-0.315-2.036-0.496-3.05c-0.954-5.325-2.656-10.393-5.233-15.161     c-0.103-0.189-0.17-0.517-0.074-0.663c0.098-0.149,0.416-0.215,0.638-0.213c2.065,0.019,3.754,0.922,5.242,2.279     c0.15,0.14,0.297,0.284,0.447,0.426C168.984,51.593,169.002,51.59,169.155,51.607z M175.063,46.199     c-0.32,0.063-0.548,0.093-0.769,0.152c-1.929,0.521-3.362,1.748-4.61,3.244c-0.188,0.226-0.151,0.399-0.073,0.664     c0.244,0.825,0.453,1.664,0.616,2.508c0.065,0.333-0.039,0.717-0.411,0.863c-0.384,0.152-0.555-0.165-0.744-0.427     c-0.95-1.321-2.12-2.382-3.659-2.974c-0.474-0.182-0.981-0.28-1.473-0.416c-0.02,0.035-0.04,0.07-0.06,0.105     c2.413,4.641,4.038,9.549,5.027,14.688C170.022,58.182,171.982,52.051,175.063,46.199z"/>
			<path fill-rule="evenodd" clip-rule="evenodd" d="M165.485,44.263c1.613,0.015,2.975,0.485,4.247,1.242     c0.301,0.179,0.325,0.43,0.158,0.741c-0.439,0.82-0.873,1.644-1.283,2.479c-0.211,0.43-0.626,0.52-0.894,0.126     c-1.092-1.61-2.685-2.424-4.512-2.874c-0.263-0.064-0.522-0.128-0.569-0.447c-0.048-0.318,0.18-0.464,0.408-0.602     C163.83,44.456,164.69,44.261,165.485,44.263z M164.566,45.341c1.276,0.553,2.449,1.242,3.417,2.292     c0.288-0.535,0.558-1.033,0.843-1.559C167.452,45.364,166.086,44.941,164.566,45.341z"/>
			<path fill-rule="evenodd" clip-rule="evenodd" fill="#39B54A" d="M151.75,44.201c3.333-0.292,5.667,1.667,5.667,1.667     s-6.709,0.916-6.459,8.458c2.625-3.958,5.375-7.416,7.5-7.208c0.75,1.333-0.375,1-1.083,3.625s0.333,4.25,0.333,4.25     s1.583-6,2.625-6.083c0.792,0.458,1.459,0.458,2.292-0.25c3.375,0.125,4.251,0.833,5.917,2.292     c-1.792-3.25-4.043-4.958-6.334-5.25c0.709-1.083,3.958-2.416,7.375-0.583c-3.958-2.917-4.416-3.417-8.166-1.792     c-0.375-1.583,0.458-3.542,0.458-3.542s-2.249,1.083-2.083,4.417C159.083,44.368,155.458,40.409,151.75,44.201z"/>
			<path fill-rule="evenodd" clip-rule="evenodd" fill="#39B54A" d="M176.625,40.909c0,0-3.188-2.625-5.438-2.375     c1.938-1.563,6.188,0.563,6.188,0.563s1.063-1.313,0.063-4.25c1.25,1.188,1.813,4.75,1.813,4.75s1.063-1.75,4.875-1.5     s4.75,1.938,4.75,1.938s-6.063-1.375-7.5,2.375c4.25,0,8.875,2.375,8.438,9.125c-5.25-8.563-9.313-7.813-9.313-7.813     s3.357,3.723,1.304,10.111c-0.366-6.174-3.179-8.611-3.179-8.611s-1.063,1.563-2.063,0.188c-2.063-0.625-4.75,0.063-7.563,3.188     c2.125-5.375,5.375-5.938,7.063-6.563C177.063,41.597,176.625,40.909,176.625,40.909z"/>
			<path fill-rule="evenodd" clip-rule="evenodd" fill="#A67C52" d="M161.125,49.409c0,0,2.625,3.813,3.875,11.688     s1.313,11,1.313,11s-0.092,0.325-0.733,0.819s0.171,0.494,2.483,0.369s4.438,0.188,5.625,0.313     c-2.188-0.938-1.188-6.063-0.375-12.125s4.438-15.063,4.438-15.063s-1.209-1.887-1.479-0.943     c-0.715,1.642-3.596,9.053-5.458,15.318c-1.121,3.771-1.343,7.891-2,7.938c-0.75-0.188-1.313-6.75-2.188-9.438     s-3.875-9.875-4.188-9.938S161.688,49.597,161.125,49.409z"/>
		</g>
		<path d="M195,30.097v47.25H89.25v-47.25H195 M196,29.097H88.25v49.25H196V29.097L196,29.097z"/>
	</g>
	<rect x="88.25" y="83.329" fill-rule="evenodd" clip-rule="evenodd" fill="#CCCCCC" width="32.237" height="17.667"/>
	<rect x="125.767" y="83.329" fill-rule="evenodd" clip-rule="evenodd" fill="#CCCCCC" width="32.236" height="17.667"/>
	<rect x="163.355" y="83.329" fill-rule="evenodd" clip-rule="evenodd" fill="#CCCCCC" width="32.236" height="17.667"/>
</g>
<g>
	<g>
		<rect x="198.354" y="60.534" fill-rule="evenodd" clip-rule="evenodd" fill="#FFFFFF" width="42.318" height="86.166"/>
		<path fill-rule="evenodd" clip-rule="evenodd" d="M246.3,66.299c0-5.453-3.092-8.538-8.549-8.543    c-6.865-0.01-13.73-0.033-20.594-0.02c-5.823,0.009-11.648-0.035-17.466,0.136c-3.432,0.102-6.104,2.608-6.742,5.987    c-0.226,1.195-0.264,2.438-0.264,3.658c-0.015,24.472-0.012,48.945-0.009,73.42c0,5.61,3,8.702,8.588,8.717    c12.076,0.029,24.15,0.026,36.225,0.001c5.904-0.014,8.808-2.958,8.811-8.83c0.005-12.33,0.002-24.658,0.002-36.985    C246.302,91.326,246.303,78.813,246.3,66.299z M211.845,61.644c5.099,0,10.123,0,15.264,0c0,1.177,0,2.307,0,3.589    c-5.048,0-10.071,0-15.264,0C211.845,63.954,211.845,62.872,211.845,61.644z M219.365,145.893c-2.027-0.086-3.666-1.8-3.665-3.836    c0.002-2.064,1.839-3.897,3.865-3.855c2.061,0.044,3.801,1.883,3.749,3.963C223.264,144.272,221.455,145.981,219.365,145.893z     M238.568,134.371c-12.811,0-25.419,0-38.146,0c0-21.717,0-43.342,0-65.08c12.715,0,25.372,0,38.146,0    C238.568,90.978,238.568,112.6,238.568,134.371z"/>
	</g>
	<g>
		<rect x="201.189" y="71.934" fill-rule="evenodd" clip-rule="evenodd" fill="#29ABE2" width="36.641" height="16.528"/>
		<path opacity="0.5" fill-rule="evenodd" clip-rule="evenodd" fill="#C69C6D" d="M237.679,83.267    c-0.17-0.257-7.556-0.343-11.162,0.172c-3.604,0.515-4.206,0.773-7.641,1.46c-3.435,0.686-5.753,0.686-7.642,0.858    c-1.89,0.171-5.064,0.429-6.009,0.515c-0.946,0.086-1.805,0.258-2.319,0.258s-1.545,0.021-1.545,0.021v1.911h36.469    L237.679,83.267z"/>
		<path opacity="0.5" fill-rule="evenodd" clip-rule="evenodd" fill="#C69C6D" d="M201.219,87.731c0,0,3.033-0.515,5.895-0.744    c2.862-0.23,7.326-0.115,9.158-0.629c1.833-0.516,4.637-0.801,5.324-1.03c0.688-0.229,1.144-0.573,2.919-0.916    c1.774-0.344,2.231-0.802,4.406-0.859c2.176-0.057,4.009-0.229,4.752-0.229c0.742,0,4.121,0.171,4.121,0.171v4.966h-36.433    L201.219,87.731z"/>
		<path fill-rule="evenodd" clip-rule="evenodd" fill="#C69C6D" d="M203.394,88.534c0,0,1.087-0.573,2.232-0.688    c1.144-0.115,3.319-0.115,3.948-0.058c0.63,0.058,3.321,0.115,3.492,0.115s2.232-0.287,2.748-0.458    c0.515-0.171,1.947-0.688,2.29-0.858c0.342-0.173,1.315-0.287,2.289-0.458c0.972-0.172,1.201-0.114,2.176-0.514    c0.972-0.401,1.773-0.859,1.945-0.859c0.171,0,0.629-0.287,1.431-0.343c0.802-0.057,1.66-0.401,2.117-0.458    c0.459-0.058,1.946-0.229,2.404-0.229c0.459,0,0.858-0.057,1.604,0c0.744,0.058,0.515,0.171,1.317,0.171c0.8,0,2.346,0,2.346,0    l2.061-0.056v4.865L203.394,88.534z"/>
		<path fill-rule="evenodd" clip-rule="evenodd" fill="#FFFFFF" d="M205.226,78.287c-0.653-0.555-1.505-1.374-0.13-2.404    c0,0-0.387-1.245,0.988-1.846c1.374-0.601,2.489,0.944,2.489,0.944s0.93-1.421,2.661-1.288c1.117,0.086,1.719,0.688,1.846,1.031    c0.945-0.73,2.19-0.215,2.361,0.729c0.73-0.128,1.589,0.086,1.547,0.644c-0.043,0.558-1.589,0.902-2.104,0.301    c0.344,1.675-2.876,2.576-3.605,1.03c-0.259,0.429-0.773,0.129-0.773,0.129s-0.214,0.901-1.889,0.429    C207.501,78.974,206.384,79.274,205.226,78.287z"/>
		<path opacity="0.4" fill="#FFFFFF" d="M223.435,77.772c-0.278,0-0.528,0.085-0.72,0.223c-0.177-0.464-0.623-0.796-1.148-0.796    c-0.051,0-0.101,0.009-0.151,0.016c0.04-0.113,0.065-0.232,0.065-0.359c0-0.601-0.486-1.087-1.088-1.087    c-0.537,0-0.979,0.391-1.069,0.903c-0.271-0.102-0.567-0.16-0.877-0.16c-0.884,0-1.659,0.457-2.109,1.146    c-0.227-0.278-0.566-0.46-0.951-0.46c-0.678,0-1.229,0.548-1.23,1.227c-0.821,0.089-1.432,0.428-1.432,0.834    c0,0.409,0.616,0.75,1.442,0.836c0.062,0.591,0.556,1.053,1.161,1.053c0.469,0,0.871-0.276,1.058-0.673    c0.455,0.649,1.21,1.074,2.062,1.074c1.187,0,2.177-0.819,2.444-1.921c0.127,0.479,0.559,0.834,1.077,0.834    c0.566,0,1.029-0.424,1.101-0.971c0.115,0.033,0.236,0.054,0.366,0.054c0.604,0,1.094-0.397,1.094-0.887    C224.528,78.169,224.038,77.772,223.435,77.772z"/>
		<g>
			<path fill-rule="evenodd" clip-rule="evenodd" d="M224.929,82.042c-0.243-0.39-0.371-0.824-0.447-1.272     c-0.137-0.78-0.127-1.077,0.038-2.041c-0.014,0-0.028-0.004-0.038,0.001c-0.381,0.246-0.755,0.496-1.01,0.892     c-0.294,0.458-0.598,0.908-0.8,1.416c-0.033,0.087-0.063,0.179-0.068,0.272c-0.009,0.106-0.05,0.178-0.154,0.186     c-0.114,0.008-0.167-0.071-0.181-0.177c-0.035-0.276-0.088-0.551-0.099-0.827c-0.025-0.642,0.074-1.262,0.378-1.837     c0.306-0.583,0.767-0.984,1.394-1.193c0.049-0.016,0.095-0.035,0.179-0.064c-0.281-0.113-0.536-0.132-0.793-0.103     c-0.379,0.043-0.739,0.139-1.063,0.357c-0.048,0.032-0.154,0.03-0.203-0.001c-0.039-0.027-0.066-0.138-0.044-0.184     c0.098-0.197,0.183-0.415,0.331-0.569c0.659-0.689,1.465-0.975,2.414-0.793c0.093,0.017,0.181,0.055,0.268,0.092     c0.085,0.038,0.166,0.086,0.255,0.133c0.083-0.369,0.242-0.683,0.505-0.944c0.204-0.205,0.439-0.36,0.731-0.399     c0.125-0.016,0.257-0.007,0.379,0.018c0.057,0.012,0.136,0.086,0.141,0.141c0.007,0.054-0.052,0.143-0.106,0.17     c-0.32,0.163-0.429,0.452-0.509,0.805c0.504-0.249,0.999-0.276,1.504-0.103c0.492,0.168,0.888,0.472,1.228,0.853     c0.234-0.198,0.45-0.408,0.694-0.579c0.246-0.171,0.521-0.303,0.788-0.455c0.002,0.004-0.004-0.016-0.018-0.022     c-0.729-0.373-1.474-0.489-2.242-0.122c-0.053,0.024-0.098,0.056-0.146,0.085c-0.085,0.051-0.172,0.061-0.245-0.017     c-0.072-0.079-0.077-0.169-0.012-0.257c0.464-0.624,1.064-1.037,1.833-1.19c0.53-0.107,1.041-0.043,1.534,0.178     c0.021,0.009,0.044,0.019,0.066,0.026c0.008,0.002,0.019,0,0.045,0c-0.079-0.403-0.204-0.766-0.594-0.979     c-0.059-0.032-0.136-0.127-0.124-0.171c0.016-0.063,0.101-0.138,0.169-0.154c0.416-0.099,0.773,0.045,1.089,0.304     c0.371,0.303,0.608,0.692,0.701,1.166c0.005,0.026,0.019,0.051,0.016,0.043c0.263-0.093,0.511-0.217,0.774-0.266     c0.696-0.128,1.35,0.036,1.955,0.39c0.452,0.264,0.814,0.612,1.016,1.106c0.038,0.095,0.073,0.193-0.021,0.271     c-0.092,0.076-0.172,0.02-0.257-0.032c-0.567-0.346-1.181-0.46-1.834-0.357c-0.106,0.016-0.204,0.062-0.349,0.107     c0.077,0.032,0.108,0.052,0.145,0.062c1.007,0.281,1.627,0.959,1.948,1.925c0.283,0.841,0.264,1.699,0.089,2.56     c-0.02,0.092-0.076,0.156-0.179,0.147c-0.1-0.009-0.13-0.078-0.155-0.172c-0.048-0.194-0.097-0.394-0.183-0.574     c-0.276-0.586-0.619-1.134-1.012-1.651c-0.283-0.371-0.698-0.57-1.082-0.829c0.03,0.119,0.063,0.237,0.09,0.356     c0.172,0.856,0.105,1.703-0.129,2.536c-0.093,0.328-0.252,0.638-0.386,0.954c-0.042,0.098-0.121,0.168-0.237,0.127     c-0.112-0.038-0.106-0.138-0.102-0.237c0.036-0.79,0.047-1.578-0.216-2.34c-0.115-0.331-0.267-0.644-0.486-0.949     c-0.033,0.059-0.06,0.1-0.081,0.144c-0.534,1.08-0.905,2.216-1.165,3.391c-0.256,1.144-0.418,2.302-0.518,3.469     c-0.045,0.508-0.081,1.017-0.118,1.526c-0.015,0.184,0.016,0.235,0.192,0.291c0.33,0.106,0.669,0.112,1.01,0.097     c0.108-0.008,0.215-0.026,0.323-0.037c0.098-0.009,0.17,0.029,0.187,0.129c0.019,0.107-0.032,0.179-0.14,0.193     c-0.515,0.063-1.027,0.054-1.52-0.132c-0.322-0.121-0.407-0.242-0.378-0.578c0.086-0.974,0.17-1.947,0.282-2.917     c0.148-1.286,0.416-2.55,0.821-3.782c0.231-0.704,0.529-1.382,0.853-2.05c0.13-0.271,0.331-0.201,0.441-0.032     c0.188,0.286,0.366,0.585,0.506,0.897c0.251,0.559,0.325,1.16,0.348,1.767c0.002,0.046,0.001,0.092,0.001,0.138     c0.013,0.003,0.024,0.005,0.038,0.007c0.042-0.154,0.088-0.309,0.123-0.466c0.144-0.646,0.19-1.299,0.072-1.955     c-0.057-0.324-0.162-0.631-0.392-0.881c-0.06-0.066-0.082-0.139-0.026-0.218c0.06-0.083,0.144-0.093,0.227-0.048     c0.259,0.144,0.512,0.299,0.771,0.443c0.813,0.45,1.271,1.204,1.711,1.976c0.093,0.163,0.176,0.33,0.265,0.496     c0.014-0.001,0.026-0.003,0.039-0.004c0.004-0.218,0.021-0.436,0.012-0.653c-0.028-0.617-0.163-1.206-0.507-1.731     c-0.401-0.614-0.978-0.955-1.692-1.079c-0.064-0.011-0.134-0.009-0.193-0.034c-0.057-0.022-0.128-0.061-0.145-0.109     c-0.017-0.049,0.008-0.134,0.044-0.176c0.216-0.247,0.507-0.357,0.819-0.409c0.495-0.082,0.979-0.023,1.453,0.124     c0.05,0.015,0.097,0.029,0.18,0.055c-0.042-0.06-0.061-0.097-0.087-0.123c-0.679-0.674-1.486-0.964-2.437-0.801     c-0.249,0.042-0.46,0.17-0.614,0.376c-0.083,0.112-0.182,0.124-0.3,0.082c-0.109-0.039-0.113-0.131-0.111-0.232     c0.011-0.566-0.22-1.016-0.684-1.338c-0.093-0.063-0.204-0.1-0.312-0.151c0.111,0.252,0.227,0.478,0.307,0.716     c0.052,0.148,0.065,0.314,0.07,0.472c0.008,0.243-0.116,0.303-0.339,0.199c-0.218-0.102-0.436-0.216-0.665-0.272     c-0.769-0.189-1.443,0.03-2.043,0.522c-0.014,0.011-0.021,0.028-0.032,0.046c0.223-0.015,0.438-0.044,0.65-0.042     c0.651,0.005,1.243,0.21,1.776,0.581c0.058,0.04,0.116,0.138,0.107,0.201c-0.007,0.052-0.104,0.118-0.171,0.134     c-0.701,0.163-1.252,0.557-1.704,1.104c-0.145,0.175-0.226,0.179-0.366,0.003c-0.307-0.388-0.666-0.707-1.142-0.875     c-0.472-0.168-0.919-0.118-1.344,0.143c-0.039,0.025-0.08,0.054-0.122,0.072c-0.167,0.076-0.28,0.008-0.288-0.175     c-0.013-0.316,0.084-0.605,0.238-0.876c0.023-0.04,0.049-0.078,0.055-0.146c-0.078,0.042-0.166,0.073-0.236,0.125     c-0.366,0.271-0.554,0.636-0.553,1.093c0,0.104,0.014,0.21-0.117,0.257c-0.135,0.05-0.217-0.005-0.302-0.107     c-0.214-0.255-0.513-0.338-0.826-0.336c-0.643,0.003-1.214,0.207-1.689,0.65c-0.031,0.028-0.056,0.062-0.109,0.125     c0.146-0.035,0.255-0.063,0.365-0.085c0.432-0.09,0.863-0.119,1.283,0.044c0.138,0.053,0.26,0.147,0.387,0.229     c0.077,0.052,0.148,0.135,0.093,0.225c-0.036,0.06-0.128,0.099-0.203,0.121c-0.147,0.042-0.307,0.054-0.454,0.103     c-0.803,0.269-1.269,0.851-1.445,1.656c-0.077,0.35-0.069,0.72-0.097,1.082c-0.002,0.025,0.005,0.051,0.041,0.084     c0.021-0.038,0.039-0.078,0.063-0.116c0.17-0.289,0.339-0.577,0.51-0.867c0.407-0.702,1.062-1.11,1.756-1.469     c0.082-0.043,0.176-0.066,0.244,0.024c0.066,0.092,0.025,0.174-0.043,0.253c-0.246,0.292-0.322,0.649-0.352,1.014     c-0.046,0.53,0.009,1.056,0.141,1.572c0.009,0.029,0.023,0.059,0.046,0.113c0.035-0.271,0.06-0.514,0.096-0.755     c0.089-0.581,0.326-1.102,0.662-1.579c0.087-0.124,0.223-0.115,0.308,0.02c0.61,0.971,1.045,2.015,1.292,3.137     c0.22,0.997,0.348,2.008,0.428,3.025c0.037,0.466,0.061,0.933,0.107,1.398c0.021,0.2-0.053,0.325-0.209,0.425     c-0.258,0.164-0.546,0.238-0.842,0.267c-0.286,0.029-0.576,0.026-0.863,0.033c-0.051,0.001-0.116,0.004-0.149-0.024     c-0.058-0.044-0.121-0.111-0.127-0.173c-0.006-0.087,0.068-0.136,0.164-0.135c0.265,0.003,0.534,0.029,0.791-0.001     c0.265-0.032,0.522-0.117,0.779-0.189c0.089-0.026,0.136-0.098,0.129-0.207c-0.097-1.442-0.199-2.882-0.51-4.299     c-0.213-0.971-0.559-1.889-1.063-2.746c-0.021-0.033-0.04-0.065-0.061-0.097c-0.007-0.012-0.018-0.021-0.037-0.041     c-0.175,0.249-0.293,0.518-0.379,0.803c-0.196,0.633-0.201,1.282-0.15,1.936"/>
			<path fill-rule="evenodd" clip-rule="evenodd" d="M228.803,79.471c-0.074-0.17-0.137-0.323-0.209-0.467     c-0.044-0.088-0.059-0.167,0.005-0.25c0.419-0.563,0.929-1.015,1.582-1.294c0.285-0.123,0.586-0.174,0.894-0.185     c0.06-0.002,0.151,0.041,0.172,0.088c0.026,0.055,0.013,0.15-0.021,0.207c-0.66,1.204-1.177,2.47-1.567,3.784     c-0.353,1.183-0.601,2.387-0.742,3.613c-0.005,0.051-0.002,0.115-0.033,0.15c-0.047,0.055-0.119,0.126-0.176,0.124     c-0.053-0.001-0.134-0.089-0.145-0.15c-0.065-0.347-0.108-0.699-0.169-1.047c-0.329-1.829-0.914-3.569-1.8-5.207     c-0.035-0.064-0.057-0.178-0.025-0.228c0.034-0.052,0.144-0.075,0.221-0.073c0.709,0.006,1.289,0.316,1.8,0.783     c0.052,0.048,0.102,0.098,0.153,0.146C228.744,79.466,228.751,79.466,228.803,79.471z M230.832,77.614     c-0.11,0.021-0.188,0.032-0.265,0.051c-0.66,0.179-1.154,0.601-1.583,1.115c-0.064,0.078-0.051,0.138-0.024,0.228     c0.084,0.283,0.155,0.571,0.211,0.861c0.022,0.114-0.014,0.247-0.142,0.297c-0.132,0.052-0.189-0.058-0.254-0.147     c-0.326-0.453-0.729-0.817-1.258-1.021c-0.162-0.063-0.338-0.096-0.505-0.143c-0.007,0.012-0.015,0.024-0.021,0.036     c0.828,1.594,1.386,3.279,1.727,5.044C229.101,81.729,229.774,79.624,230.832,77.614z"/>
			<path fill-rule="evenodd" clip-rule="evenodd" d="M227.542,76.949c0.556,0.005,1.021,0.167,1.46,0.427     c0.103,0.061,0.112,0.147,0.054,0.254c-0.15,0.282-0.299,0.564-0.441,0.852c-0.071,0.148-0.215,0.178-0.307,0.043     c-0.373-0.553-0.921-0.832-1.548-0.987c-0.091-0.023-0.181-0.044-0.197-0.154c-0.016-0.108,0.063-0.159,0.142-0.207     C226.975,77.016,227.271,76.949,227.542,76.949z M227.229,77.319c0.438,0.19,0.841,0.427,1.172,0.787     c0.101-0.184,0.193-0.354,0.29-0.534C228.219,77.327,227.75,77.183,227.229,77.319z"/>
			<path fill-rule="evenodd" clip-rule="evenodd" fill="#39B54A" d="M222.826,76.927c1.145-0.1,1.945,0.574,1.945,0.574     s-2.304,0.314-2.218,2.904c0.902-1.359,1.846-2.547,2.575-2.475c0.258,0.457-0.128,0.343-0.372,1.245     c-0.242,0.901,0.115,1.459,0.115,1.459s0.543-2.061,0.9-2.089c0.272,0.158,0.502,0.158,0.789-0.086     c1.157,0.042,1.459,0.286,2.032,0.787c-0.616-1.116-1.39-1.703-2.176-1.803c0.242-0.372,1.359-0.83,2.533-0.2     c-1.359-1.002-1.518-1.174-2.806-0.616c-0.128-0.544,0.157-1.216,0.157-1.216s-0.772,0.372-0.715,1.516     C225.343,76.985,224.098,75.626,222.826,76.927z"/>
			<path fill-rule="evenodd" clip-rule="evenodd" fill="#39B54A" d="M231.369,75.797c0,0-1.096-0.901-1.868-0.815     c0.666-0.536,2.125,0.193,2.125,0.193s0.366-0.45,0.022-1.459c0.429,0.407,0.622,1.631,0.622,1.631s0.365-0.601,1.674-0.515     c1.309,0.085,1.631,0.666,1.631,0.666s-2.081-0.473-2.575,0.815c1.458,0,3.048,0.815,2.898,3.134     c-1.804-2.941-3.199-2.684-3.199-2.684s1.152,1.278,0.447,3.473c-0.125-2.12-1.09-2.958-1.09-2.958s-0.366,0.537-0.71,0.065     c-0.709-0.215-1.632,0.021-2.596,1.094c0.729-1.846,1.845-2.039,2.425-2.254C231.519,76.034,231.369,75.797,231.369,75.797z"/>
			<path fill-rule="evenodd" clip-rule="evenodd" fill="#A67C52" d="M226.045,78.716c0,0,0.902,1.31,1.333,4.015     c0.429,2.704,0.45,3.778,0.45,3.778s-0.032,0.111-0.253,0.281c-0.221,0.169,0.059,0.169,0.854,0.126     c0.793-0.043,1.522,0.063,1.931,0.107c-0.75-0.322-0.408-2.083-0.13-4.164c0.28-2.082,1.525-5.173,1.525-5.173     s-0.416-0.647-0.509-0.324c-0.246,0.565-1.234,3.109-1.875,5.262c-0.385,1.295-0.46,2.709-0.685,2.726     c-0.258-0.064-0.45-2.318-0.751-3.241c-0.302-0.923-1.332-3.392-1.439-3.414C226.389,78.673,226.238,78.781,226.045,78.716z"/>
		</g>
		<path d="M237.679,72.084v16.228h-36.317V72.084H237.679 M238.023,71.741h-37.005v16.914h37.005V71.741L238.023,71.741z"/>
	</g>
	<rect x="201.063" y="90.665" fill-rule="evenodd" clip-rule="evenodd" fill="#CCCCCC" width="17.081" height="9.36"/>
	<rect x="220.941" y="90.665" fill-rule="evenodd" clip-rule="evenodd" fill="#CCCCCC" width="17.08" height="9.36"/>
	<rect x="201.063" y="102.042" fill-rule="evenodd" clip-rule="evenodd" fill="#CCCCCC" width="17.081" height="9.36"/>
	<rect x="220.941" y="102.042" fill-rule="evenodd" clip-rule="evenodd" fill="#CCCCCC" width="17.08" height="9.36"/>
	<g>
		<rect x="201.167" y="113.994" fill="#CCCCCC" width="20.896" height="1"/>
	</g>
	<g>
		<rect x="201.167" y="116.786" fill="#CCCCCC" width="36.5" height="1"/>
	</g>
	<g>
		<rect x="201.167" y="119.577" fill="#CCCCCC" width="36.5" height="1"/>
	</g>
	<g>
		<rect x="201.167" y="122.369" fill="#CCCCCC" width="36.5" height="1"/>
	</g>
	<g>
		<rect x="201.167" y="126.41" fill="#CCCCCC" width="36.5" height="1"/>
	</g>
	<g>
		<rect x="201.167" y="129.202" fill="#CCCCCC" width="36.5" height="1"/>
	</g>
</g>
<path fill="#FFFFFF" d="M128,145.02c-27.569,0-50,22.43-50,49.999c0,27.57,22.431,50.002,50,50.002s50-22.432,50-50.002  C178,167.449,155.569,145.02,128,145.02z M83.046,195.019c0-6.518,1.398-12.704,3.893-18.295l21.444,58.752  C93.386,228.19,83.046,212.812,83.046,195.019z M128,239.976c-4.412,0-8.671-0.647-12.7-1.832l13.49-39.192l13.816,37.856  c0.091,0.222,0.203,0.427,0.322,0.619C138.256,239.071,133.235,239.976,128,239.976z M134.196,173.941  c2.705-0.142,5.145-0.427,5.145-0.427c2.422-0.287,2.137-3.847-0.287-3.705c0,0-7.281,0.571-11.982,0.571  c-4.416,0-11.839-0.571-11.839-0.571c-2.425-0.142-2.709,3.562-0.285,3.705c0,0,2.293,0.285,4.715,0.427l7.003,19.19l-9.838,29.504  l-16.37-48.694c2.708-0.142,5.145-0.427,5.145-0.427c2.421-0.287,2.135-3.847-0.287-3.705c0,0-7.28,0.571-11.981,0.571  c-0.844,0-1.838-0.021-2.894-0.054c8.039-12.203,21.854-20.262,37.561-20.262c11.703,0,22.358,4.475,30.356,11.803  c-0.193-0.013-0.383-0.037-0.582-0.037c-4.416,0-7.549,3.848-7.549,7.979c0,3.705,2.137,6.839,4.416,10.544  c1.709,2.994,3.705,6.841,3.705,12.398c0,3.847-1.479,8.312-3.42,14.532l-4.484,14.98L134.196,173.941z M167.447,173.452  c3.509,6.402,5.506,13.751,5.506,21.566c0,16.585-8.987,31.063-22.353,38.856l13.73-39.699c2.564-6.413,3.419-11.541,3.419-16.101  C167.75,176.42,167.641,174.884,167.447,173.452z"/>
</svg>